<mxfile host="app.diagrams.net" modified="2022-12-30T06:07:26.685Z" agent="5.0 (Windows NT 6.1; Win64; x64) AppleWebKit/537.36 (KHTML, like Gecko) Chrome/108.0.0.0 Safari/537.36" version="20.7.4" etag="RxrsgPbdT7Uz3rbCF0Wz" type="github">
  <diagram id="SWQjEoZwVctDHvbwJN_l" name="第 1 页">
    <mxGraphModel dx="1434" dy="764" grid="1" gridSize="10" guides="1" tooltips="1" connect="1" arrows="1" fold="1" page="1" pageScale="1" pageWidth="827" pageHeight="1169" math="0" shadow="0">
      <root>
        <mxCell id="0" />
        <mxCell id="1" parent="0" />
        <mxCell id="dYCQwEeV15FVL9rocszs-9" value="" style="rounded=0;whiteSpace=wrap;html=1;fontSize=15;" vertex="1" parent="1">
          <mxGeometry x="100" y="30" width="350" height="650" as="geometry" />
        </mxCell>
        <mxCell id="dYCQwEeV15FVL9rocszs-17" value="" style="edgeStyle=orthogonalEdgeStyle;rounded=0;orthogonalLoop=1;jettySize=auto;html=1;fontSize=15;" edge="1" parent="1" source="dYCQwEeV15FVL9rocszs-5" target="dYCQwEeV15FVL9rocszs-16">
          <mxGeometry relative="1" as="geometry" />
        </mxCell>
        <mxCell id="dYCQwEeV15FVL9rocszs-5" value="升妍" style="shape=umlActor;verticalLabelPosition=bottom;verticalAlign=top;html=1;outlineConnect=0;fontSize=15;fillColor=#f8cecc;strokeColor=#b85450;" vertex="1" parent="1">
          <mxGeometry x="130" y="430" width="30" height="60" as="geometry" />
        </mxCell>
        <mxCell id="dYCQwEeV15FVL9rocszs-26" value="" style="edgeStyle=orthogonalEdgeStyle;rounded=0;orthogonalLoop=1;jettySize=auto;html=1;fontSize=15;" edge="1" parent="1" source="dYCQwEeV15FVL9rocszs-11" target="dYCQwEeV15FVL9rocszs-25">
          <mxGeometry relative="1" as="geometry" />
        </mxCell>
        <mxCell id="dYCQwEeV15FVL9rocszs-11" value="又情" style="shape=umlActor;verticalLabelPosition=bottom;verticalAlign=top;html=1;outlineConnect=0;fontSize=15;fillColor=#f8cecc;strokeColor=#b85450;" vertex="1" parent="1">
          <mxGeometry x="130" y="310" width="30" height="60" as="geometry" />
        </mxCell>
        <mxCell id="dYCQwEeV15FVL9rocszs-16" value="&amp;nbsp; &amp;nbsp; &amp;nbsp; &amp;nbsp;年龄：24岁&lt;br&gt;&amp;nbsp; &amp;nbsp; &amp;nbsp; &amp;nbsp;职业：延世大学4年级钢琴专业" style="whiteSpace=wrap;html=1;fontSize=15;verticalAlign=top;fillColor=#f8cecc;strokeColor=#b85450;align=left;" vertex="1" parent="1">
          <mxGeometry x="195" y="430" width="235" height="60" as="geometry" />
        </mxCell>
        <mxCell id="dYCQwEeV15FVL9rocszs-18" value="" style="rounded=0;whiteSpace=wrap;html=1;fontSize=15;" vertex="1" parent="1">
          <mxGeometry x="640" y="30" width="360" height="530" as="geometry" />
        </mxCell>
        <mxCell id="dYCQwEeV15FVL9rocszs-20" value="正贤" style="shape=umlActor;verticalLabelPosition=bottom;verticalAlign=top;html=1;outlineConnect=0;fontSize=15;fillColor=#dae8fc;strokeColor=#6c8ebf;" vertex="1" parent="1">
          <mxGeometry x="660" y="410" width="30" height="60" as="geometry" />
        </mxCell>
        <mxCell id="dYCQwEeV15FVL9rocszs-24" value="年龄：29岁&lt;br&gt;职业：厨师，经营红酒屋" style="whiteSpace=wrap;html=1;fontSize=15;verticalAlign=top;fillColor=#dae8fc;strokeColor=#6c8ebf;align=left;" vertex="1" parent="1">
          <mxGeometry x="725" y="410" width="235" height="60" as="geometry" />
        </mxCell>
        <mxCell id="dYCQwEeV15FVL9rocszs-25" value="&lt;div style=&quot;text-align: left;&quot;&gt;&lt;span style=&quot;background-color: initial;&quot;&gt;年龄：26&lt;/span&gt;&lt;/div&gt;&lt;div style=&quot;text-align: left;&quot;&gt;&lt;span style=&quot;background-color: initial;&quot;&gt;职业：培训机构讲师&lt;/span&gt;&lt;/div&gt;" style="whiteSpace=wrap;html=1;fontSize=15;verticalAlign=top;fillColor=#f8cecc;strokeColor=#b85450;" vertex="1" parent="1">
          <mxGeometry x="195" y="310" width="235" height="60" as="geometry" />
        </mxCell>
        <mxCell id="dYCQwEeV15FVL9rocszs-27" value="" style="edgeStyle=orthogonalEdgeStyle;rounded=0;orthogonalLoop=1;jettySize=auto;html=1;fontSize=15;" edge="1" parent="1" source="dYCQwEeV15FVL9rocszs-28" target="dYCQwEeV15FVL9rocszs-29">
          <mxGeometry relative="1" as="geometry" />
        </mxCell>
        <mxCell id="dYCQwEeV15FVL9rocszs-28" value="孝珍" style="shape=umlActor;verticalLabelPosition=bottom;verticalAlign=top;html=1;outlineConnect=0;fontSize=15;fillColor=#f8cecc;strokeColor=#b85450;" vertex="1" parent="1">
          <mxGeometry x="130" y="200" width="30" height="60" as="geometry" />
        </mxCell>
        <mxCell id="dYCQwEeV15FVL9rocszs-29" value="&lt;div style=&quot;text-align: left;&quot;&gt;&lt;span style=&quot;background-color: initial;&quot;&gt;年龄：25&lt;/span&gt;&lt;/div&gt;&lt;div style=&quot;text-align: left;&quot;&gt;&lt;span style=&quot;background-color: initial;&quot;&gt;职业：国际会议计划&lt;/span&gt;&lt;/div&gt;" style="whiteSpace=wrap;html=1;fontSize=15;verticalAlign=top;fillColor=#f8cecc;strokeColor=#b85450;" vertex="1" parent="1">
          <mxGeometry x="195" y="200" width="235" height="60" as="geometry" />
        </mxCell>
        <mxCell id="dYCQwEeV15FVL9rocszs-30" value="" style="edgeStyle=orthogonalEdgeStyle;rounded=0;orthogonalLoop=1;jettySize=auto;html=1;fontSize=15;" edge="1" parent="1" source="dYCQwEeV15FVL9rocszs-31" target="dYCQwEeV15FVL9rocszs-32">
          <mxGeometry relative="1" as="geometry" />
        </mxCell>
        <mxCell id="dYCQwEeV15FVL9rocszs-31" value="秀智" style="shape=umlActor;verticalLabelPosition=bottom;verticalAlign=top;html=1;outlineConnect=0;fontSize=15;fillColor=#f8cecc;strokeColor=#b85450;" vertex="1" parent="1">
          <mxGeometry x="130" y="100" width="30" height="60" as="geometry" />
        </mxCell>
        <mxCell id="dYCQwEeV15FVL9rocszs-32" value="&lt;div style=&quot;text-align: left;&quot;&gt;&lt;span style=&quot;background-color: initial;&quot;&gt;年龄：22&lt;/span&gt;&lt;/div&gt;&lt;div style=&quot;text-align: left;&quot;&gt;&lt;span style=&quot;background-color: initial;&quot;&gt;职业：梨花女大音乐专业&lt;/span&gt;&lt;/div&gt;" style="whiteSpace=wrap;html=1;fontSize=15;verticalAlign=top;fillColor=#f8cecc;strokeColor=#b85450;" vertex="1" parent="1">
          <mxGeometry x="195" y="100" width="235" height="60" as="geometry" />
        </mxCell>
        <mxCell id="dYCQwEeV15FVL9rocszs-34" value="" style="edgeStyle=orthogonalEdgeStyle;rounded=0;orthogonalLoop=1;jettySize=auto;html=1;fontSize=15;" edge="1" parent="1" source="dYCQwEeV15FVL9rocszs-35" target="dYCQwEeV15FVL9rocszs-36">
          <mxGeometry relative="1" as="geometry" />
        </mxCell>
        <mxCell id="dYCQwEeV15FVL9rocszs-35" value="勇浩" style="shape=umlActor;verticalLabelPosition=bottom;verticalAlign=top;html=1;outlineConnect=0;fontSize=15;fillColor=#dae8fc;strokeColor=#6c8ebf;" vertex="1" parent="1">
          <mxGeometry x="660" y="300" width="30" height="60" as="geometry" />
        </mxCell>
        <mxCell id="dYCQwEeV15FVL9rocszs-36" value="年龄：28岁&lt;br&gt;职业：小学教育老师" style="whiteSpace=wrap;html=1;fontSize=15;verticalAlign=top;fillColor=#dae8fc;strokeColor=#6c8ebf;align=left;" vertex="1" parent="1">
          <mxGeometry x="725" y="300" width="235" height="60" as="geometry" />
        </mxCell>
        <mxCell id="dYCQwEeV15FVL9rocszs-37" value="" style="edgeStyle=orthogonalEdgeStyle;rounded=0;orthogonalLoop=1;jettySize=auto;html=1;fontSize=15;" edge="1" parent="1" source="dYCQwEeV15FVL9rocszs-38" target="dYCQwEeV15FVL9rocszs-39">
          <mxGeometry relative="1" as="geometry" />
        </mxCell>
        <mxCell id="dYCQwEeV15FVL9rocszs-38" value="秀路" style="shape=umlActor;verticalLabelPosition=bottom;verticalAlign=top;html=1;outlineConnect=0;fontSize=15;fillColor=#dae8fc;strokeColor=#6c8ebf;" vertex="1" parent="1">
          <mxGeometry x="660" y="60" width="30" height="60" as="geometry" />
        </mxCell>
        <mxCell id="dYCQwEeV15FVL9rocszs-39" value="年龄：23岁&lt;br&gt;职业：广告模特" style="whiteSpace=wrap;html=1;fontSize=15;verticalAlign=top;fillColor=#dae8fc;strokeColor=#6c8ebf;align=left;" vertex="1" parent="1">
          <mxGeometry x="725" y="60" width="235" height="60" as="geometry" />
        </mxCell>
        <mxCell id="dYCQwEeV15FVL9rocszs-40" value="" style="edgeStyle=orthogonalEdgeStyle;rounded=0;orthogonalLoop=1;jettySize=auto;html=1;fontSize=15;" edge="1" parent="1" source="dYCQwEeV15FVL9rocszs-41" target="dYCQwEeV15FVL9rocszs-42">
          <mxGeometry relative="1" as="geometry" />
        </mxCell>
        <mxCell id="dYCQwEeV15FVL9rocszs-41" value="成范" style="shape=umlActor;verticalLabelPosition=bottom;verticalAlign=top;html=1;outlineConnect=0;fontSize=15;fillColor=#dae8fc;strokeColor=#6c8ebf;" vertex="1" parent="1">
          <mxGeometry x="662.5" y="170" width="30" height="60" as="geometry" />
        </mxCell>
        <mxCell id="dYCQwEeV15FVL9rocszs-42" value="年龄：28岁&lt;br&gt;职业：rapper" style="whiteSpace=wrap;html=1;fontSize=15;verticalAlign=top;fillColor=#dae8fc;strokeColor=#6c8ebf;align=left;" vertex="1" parent="1">
          <mxGeometry x="727.5" y="170" width="235" height="60" as="geometry" />
        </mxCell>
        <mxCell id="dYCQwEeV15FVL9rocszs-46" value="" style="edgeStyle=orthogonalEdgeStyle;rounded=0;orthogonalLoop=1;jettySize=auto;html=1;fontSize=15;" edge="1" parent="1" source="dYCQwEeV15FVL9rocszs-47" target="dYCQwEeV15FVL9rocszs-48">
          <mxGeometry relative="1" as="geometry" />
        </mxCell>
        <mxCell id="dYCQwEeV15FVL9rocszs-47" value="泰恩" style="shape=umlActor;verticalLabelPosition=bottom;verticalAlign=top;html=1;outlineConnect=0;fontSize=15;fillColor=#f8cecc;strokeColor=#b85450;" vertex="1" parent="1">
          <mxGeometry x="130" y="560" width="30" height="60" as="geometry" />
        </mxCell>
        <mxCell id="dYCQwEeV15FVL9rocszs-48" value="&amp;nbsp; &amp;nbsp; &amp;nbsp; &amp;nbsp;年龄：31岁&lt;br&gt;&amp;nbsp; &amp;nbsp; &amp;nbsp; &amp;nbsp;职业：广告营销" style="whiteSpace=wrap;html=1;fontSize=15;verticalAlign=top;fillColor=#f8cecc;strokeColor=#b85450;align=left;" vertex="1" parent="1">
          <mxGeometry x="195" y="560" width="235" height="60" as="geometry" />
        </mxCell>
      </root>
    </mxGraphModel>
  </diagram>
</mxfile>
